<svg width="32" height="32" fill="none" xmlns="http://www.w3.org/2000/svg"><path d="m19.92 31.035.308-5.116.849-1.447s-1.933.79-5.17.79c-3.236 0-5.14-.775-5.14-.775l.952 1.579.337 4.97c0 .532 1.76.964 3.932.964 2.171 0 3.932-.432 3.932-.965Zm-.97-23.89.645-2.547L23.171.843l-.942-.801-3.786 4-.75 3.043A50.335 50.335 0 0 0 16 7.057c-3.987 0-7.219.453-7.219 1.012 0 .56 3.232 1.013 7.22 1.013 3.986 0 7.218-.453 7.218-1.013 0-.411-1.753-.766-4.27-.924Z" fill="#D34A47"/><path d="M18.574 8.571s-.14.032-.551.033c-.412.002-.704-.002-.82-.108a.183.183 0 0 1-.048-.123c0-.073.052-.115.118-.142l.062.097c-.027.01-.043.02-.043.032 0 .056.42.093.743.09.322-.005.711-.031.711-.086 0-.016-.03-.032-.08-.044l.062-.097c.083.026.156.076.156.163-.001.147-.188.169-.31.185Z" fill="#fff"/><path d="M23.164.85c.09-.104-.047-.369-.305-.592-.258-.223-.54-.32-.63-.216-.09.103.046.368.304.591.258.224.54.32.63.217Zm-3.416 17.69c-.085-.814 1.783-1.993 1.304-2.03-1.032.058-1.546 1.206-2.065 2.41-.19.44-.841 2.32-1.268 2.088-.428-.231.553-1.777.828-2.695-.317.232-1.48 1.134-1.78.29-.482.408-1.511.63-1.395-.444-.256.454-.832 1.086-1.522.823-.907-.345.525-3.228.882-3.082.356.145-.072.802-.184 1.057-.247.561-.532 1.267-.342 1.411.326.248 1.213-.936 1.233-.962.166-.219.639-1.65 1.02-1.486.38.165-.95 2.054-.453 2.43.1.075.511-.047.761-.317.162-.175.106-.561.645-1.844.539-1.282 1.02-2.88 1.389-2.758.37.122.065.942-.068 1.247-.622 1.434-1.698 3.804-1.19 3.625.507-.18.771-.19 1.268-.77.497-.58.474-1.537.805-1.516.331.02.276.327.195.56.326-.372 1.545-1.156 1.84-.38.348.92-1.744 2.247-1.223 2.18.509-.066 1.333-.587 1.685-1.061l.969-8.691s-.975.805-7.176.805c-6.2 0-7.074-.788-7.074-.788l.824 7.933c.438-1.242 1.477-3.753 3.116-3.67.745.04 1.74 1.471.888 1.52-.361.02-.398-.715-.825-.823-.308-.078-.737.172-1.015.443-.553.54-1.742 2.672-1.585 3.735.2 1.355 1.873-.471 2.156-1.013.2-.382.334-1.513.77-1.394.436.118-.038 1.286-.354 2.318-.355 1.159-.542 2.382-.987 2.24-.445-.14.28-1.636.254-1.898-.418.385-1.189 1.36-2.175.878l.512 4.926s1.361 1.073 5.462 1.073c4.1 0 5.511-1.056 5.511-1.056l.636-5.706c-.52.506-2.167 1.403-2.272.391Z" fill="#D34A47"/></svg>